<svg width="500" height="500" viewBox="0 0 500 500" fill="none" xmlns="http://www.w3.org/2000/svg">
  <rect width="500" height="500" fill="#f8fafc" />
  <circle cx="50" cy="50" r="5" fill="#4F46E5" opacity="0.3" />
  <circle cx="150" cy="50" r="5" fill="#4F46E5" opacity="0.3" />
  <circle cx="250" cy="50" r="5" fill="#4F46E5" opacity="0.3" />
  <circle cx="350" cy="50" r="5" fill="#4F46E5" opacity="0.3" />
  <circle cx="450" cy="50" r="5" fill="#4F46E5" opacity="0.3" />
  
  <circle cx="50" cy="150" r="5" fill="#4F46E5" opacity="0.3" />
  <circle cx="150" cy="150" r="5" fill="#4F46E5" opacity="0.3" />
  <circle cx="250" cy="150" r="5" fill="#4F46E5" opacity="0.3" />
  <circle cx="350" cy="150" r="5" fill="#4F46E5" opacity="0.3" />
  <circle cx="450" cy="150" r="5" fill="#4F46E5" opacity="0.3" />
  
  <circle cx="50" cy="250" r="5" fill="#4F46E5" opacity="0.3" />
  <circle cx="150" cy="250" r="5" fill="#4F46E5" opacity="0.3" />
  <circle cx="250" cy="250" r="5" fill="#4F46E5" opacity="0.3" />
  <circle cx="350" cy="250" r="5" fill="#4F46E5" opacity="0.3" />
  <circle cx="450" cy="250" r="5" fill="#4F46E5" opacity="0.3" />
  
  <circle cx="50" cy="350" r="5" fill="#4F46E5" opacity="0.3" />
  <circle cx="150" cy="350" r="5" fill="#4F46E5" opacity="0.3" />
  <circle cx="250" cy="350" r="5" fill="#4F46E5" opacity="0.3" />
  <circle cx="350" cy="350" r="5" fill="#4F46E5" opacity="0.3" />
  <circle cx="450" cy="350" r="5" fill="#4F46E5" opacity="0.3" />
  
  <circle cx="50" cy="450" r="5" fill="#4F46E5" opacity="0.3" />
  <circle cx="150" cy="450" r="5" fill="#4F46E5" opacity="0.3" />
  <circle cx="250" cy="450" r="5" fill="#4F46E5" opacity="0.3" />
  <circle cx="350" cy="450" r="5" fill="#4F46E5" opacity="0.3" />
  <circle cx="450" cy="450" r="5" fill="#4F46E5" opacity="0.3" />
  
  <line x1="50" y1="50" x2="150" y2="50" stroke="#4F46E5" stroke-width="1" opacity="0.2" />
  <line x1="150" y1="50" x2="250" y2="50" stroke="#4F46E5" stroke-width="1" opacity="0.2" />
  <line x1="250" y1="50" x2="350" y2="50" stroke="#4F46E5" stroke-width="1" opacity="0.2" />
  <line x1="350" y1="50" x2="450" y2="50" stroke="#4F46E5" stroke-width="1" opacity="0.2" />
  
  <line x1="50" y1="50" x2="50" y2="150" stroke="#4F46E5" stroke-width="1" opacity="0.2" />
  <line x1="150" y1="50" x2="150" y2="150" stroke="#4F46E5" stroke-width="1" opacity="0.2" />
  <line x1="250" y1="50" x2="250" y2="150" stroke="#4F46E5" stroke-width="1" opacity="0.2" />
  <line x1="350" y1="50" x2="350" y2="150" stroke="#4F46E5" stroke-width="1" opacity="0.2" />
  <line x1="450" y1="50" x2="450" y2="150" stroke="#4F46E5" stroke-width="1" opacity="0.2" />
  
  <line x1="50" y1="150" x2="50" y2="250" stroke="#4F46E5" stroke-width="1" opacity="0.2" />
  <line x1="50" y1="250" x2="50" y2="350" stroke="#4F46E5" stroke-width="1" opacity="0.2" />
  <line x1="50" y1="350" x2="50" y2="450" stroke="#4F46E5" stroke-width="1" opacity="0.2" />
  
  <line x1="150" y1="150" x2="250" y2="250" stroke="#4F46E5" stroke-width="1" opacity="0.2" />
  <line x1="250" y1="250" x2="350" y2="350" stroke="#4F46E5" stroke-width="1" opacity="0.2" />
  <line x1="350" y1="350" x2="450" y2="450" stroke="#4F46E5" stroke-width="1" opacity="0.2" />
  
  <line x1="450" y1="150" x2="350" y2="250" stroke="#4F46E5" stroke-width="1" opacity="0.2" />
  <line x1="350" y1="250" x2="250" y2="350" stroke="#4F46E5" stroke-width="1" opacity="0.2" />
  <line x1="250" y1="350" x2="150" y2="450" stroke="#4F46E5" stroke-width="1" opacity="0.2" />
</svg> 